<?xml version="1.0" encoding="UTF-8"?>
<svg version="1.1" xmlns="http://www.w3.org/2000/svg" width="1024" height="1024">
<path d="M0 0 C337.92 0 675.84 0 1024 0 C1024 337.92 1024 675.84 1024 1024 C686.08 1024 348.16 1024 0 1024 C0 686.08 0 348.16 0 0 Z " fill="#FBFBFC" transform="translate(0,0)"/>
<path d="M0 0 C1.13072182 0.00539291 1.13072182 0.00539291 2.2842865 0.01089478 C3.46956436 0.01067574 3.46956436 0.01067574 4.67878723 0.01045227 C7.30309245 0.0111516 9.92732759 0.01894489 12.55162048 0.02676392 C14.36623089 0.02862803 16.18084179 0.03005196 17.99545288 0.03105164 C22.78111653 0.03487737 27.56675003 0.04470813 32.35240173 0.05575562 C37.23195488 0.06596854 42.11151287 0.070549 46.99107361 0.07559204 C56.57246709 0.08633035 66.15383816 0.10340744 75.73521423 0.12442017 C74.64098205 3.49315163 73.52341832 6.78996444 72.06211853 10.01724243 C71.74334244 10.7251593 71.42456635 11.43307617 71.09613037 12.16244507 C70.75402023 12.91431091 70.4119101 13.66617676 70.05943298 14.44082642 C69.69818832 15.24111267 69.33694366 16.04139893 68.9647522 16.86593628 C67.78675603 19.47415325 66.604743 22.0805286 65.42271423 24.68692017 C64.59964716 26.50733525 63.77689608 28.32789323 62.95445251 30.14859009 C61.71403969 32.89445378 60.47341641 35.64021998 59.23167419 38.38548279 C56.3507256 44.75535782 53.48872139 51.13339461 50.63780212 57.51675415 C41.32448712 78.36863683 31.79645951 99.12239421 22.25474548 119.87051392 C21.88370193 120.67734116 21.51265839 121.4841684 21.13037109 122.31544495 C18.00600146 129.10911803 18.00600146 129.10911803 16.70899963 131.92871094 C11.32534193 143.63429338 5.98332145 155.35729659 0.73521423 167.12442017 C1.30884705 166.75832642 1.88247986 166.39223267 2.47349548 166.01504517 C3.74773376 165.20293579 3.74773376 165.20293579 5.04771423 164.37442017 C6.07251892 163.72086548 7.09732361 163.06731079 8.15318298 162.39395142 C10.60533886 160.83523261 13.06734968 159.29359398 15.53599548 157.76113892 C44.2664023 139.86581668 72.13374175 120.61520229 99.5174408 100.73330688 C104.00157915 97.48028269 108.49527662 94.24046706 112.98789978 90.99917603 C116.73052002 88.29804407 120.4692704 85.59187718 124.20005798 82.87442017 C132.61001797 76.75783504 141.09638846 70.77927632 149.69541931 64.93130493 C157.0777312 59.90751559 164.37346498 54.76700761 171.65562439 49.59951782 C175.11632386 47.1447695 178.58187021 44.69689709 182.04771423 42.24942017 C182.7377655 41.76167114 183.42781677 41.27392212 184.13877869 40.77139282 C188.02667378 38.02599908 191.92312964 35.2934586 195.82896423 32.57363892 C207.9902531 24.1032762 219.94952143 15.54468294 231.36021423 6.06973267 C232.53583923 5.10680298 232.53583923 5.10680298 233.73521423 4.12442017 C234.2503316 3.59701642 234.76544897 3.06961267 235.29617596 2.526227 C239.10501533 0.33714407 242.81656597 0.71491783 247.13482666 0.75019836 C248.57956471 0.74423676 248.57956471 0.74423676 250.05348939 0.73815471 C253.29040136 0.72850853 256.52687877 0.74036479 259.76377869 0.75210571 C262.0817023 0.74967822 264.39962488 0.74595931 266.71754456 0.74104309 C273.02655762 0.73161483 279.33541602 0.7410812 285.64441705 0.75437522 C291.5891811 0.76454411 297.53393047 0.76207542 303.4787009 0.7601727 C315.28094688 0.7569803 327.08313262 0.76865541 338.88536072 0.78823853 C350.29293155 0.80716148 361.70043155 0.81434791 373.10801697 0.80874634 C385.55035052 0.80265465 397.99265289 0.80293342 410.43498391 0.81423217 C417.01128053 0.82018247 423.58755859 0.82392405 430.16385841 0.82126427 C436.36826412 0.81935893 442.57258071 0.82765494 448.77696609 0.84332466 C451.03617293 0.84751435 453.2953889 0.84845468 455.55459785 0.84563446 C474.02194364 0.82610577 493.15307086 0.86402445 511.17271423 5.37442017 C512.0711908 5.59057983 512.96966736 5.8067395 513.89537048 6.02944946 C533.5599483 10.94034163 555.07470726 19.29594134 566.18882751 37.30899048 C574.61877459 51.93453562 575.76335862 66.34185272 571.76255798 82.64004517 C566.14526057 101.69186756 556.22471244 117.67766241 542.73521423 132.12442017 C541.51898376 133.46246704 541.51898376 133.46246704 540.27818298 134.82754517 C522.85348104 153.20583776 497.98463351 166.555575 473.67271423 173.12442017 C472.53128967 173.43621216 472.53128967 173.43621216 471.36680603 173.75430298 C466.0497156 175.08430348 461.21245202 175.2981284 455.73521423 175.12442017 C455.73521423 175.78442017 455.73521423 176.44442017 455.73521423 177.12442017 C456.71490173 177.08317017 457.69458923 177.04192017 458.70396423 176.99942017 C474.74340406 177.03162788 492.31393363 185.84444645 503.59068298 196.78457642 C514.8875043 209.11025213 519.17162444 222.41014363 519.00865173 238.96817017 C517.62121525 268.03565135 499.67931541 294.31153018 479.73521423 314.12442017 C479.14482361 314.7728186 478.55443298 315.42121704 477.94615173 316.08926392 C438.41008706 358.56950361 373.84665942 372.89642263 318.36573696 375.04259777 C299.99823074 375.61391895 281.59434454 375.36734869 263.22076845 375.32720804 C257.12540819 375.31485218 251.03004081 375.31394963 244.93467014 375.3119043 C232.88867847 375.30756345 220.84271441 375.2943543 208.79673767 375.27529907 C197.11867915 375.25684544 185.44062821 375.24273584 173.76255798 375.23428345 C173.03862577 375.233758 172.31469356 375.23323255 171.56882401 375.23269118 C167.93584563 375.23008047 164.3028672 375.22755321 160.66988873 375.22506738 C130.69164459 375.20444775 100.71343269 375.16917073 70.73521423 375.12442017 C69.46840624 372.60079905 68.20270226 370.07663401 66.93760681 367.55215454 C66.58317757 366.84637268 66.22874832 366.14059082 65.8635788 365.41342163 C62.588595 358.87451063 59.48166365 352.26734455 56.42271423 345.62442017 C55.85950594 344.40639753 55.29610626 343.18846338 54.73252869 341.97061157 C51.71013116 335.43392949 48.70972568 328.88727699 45.71836853 322.33633423 C38.54060038 306.62017333 31.17385003 290.99468746 23.79631042 275.37161255 C22.74100124 273.1366759 21.6860457 270.90157267 20.63121033 268.66641235 C16.76153382 260.46687187 12.88964022 252.2683814 9.01626587 244.07058716 C6.32703117 238.37844312 3.64019229 232.6851711 0.95396423 226.99160767 C-0.21886351 224.50621972 -1.39173339 222.02085165 -2.56462097 219.53549194 C-3.31711608 217.94071664 -4.06945825 216.34586916 -4.82164001 214.75094604 C-5.86347277 212.54190858 -6.90586618 210.3331365 -7.94837952 208.12442017 C-8.40966248 207.14576492 -8.40966248 207.14576492 -8.88026428 206.14733887 C-10.30866779 203.12239267 -11.75119946 200.10777476 -13.26478577 197.12442017 C-20.19184586 211.36416081 -27.07311429 225.61811975 -33.70228577 239.99942017 C-38.81594762 251.08959112 -44.07853096 262.09811635 -49.4500885 273.06533813 C-52.38151433 279.07457394 -55.26281392 285.10049311 -58.05458069 291.17617798 C-66.52398407 309.60565605 -75.46273637 327.75595504 -84.57728577 345.87442017 C-89.42416077 355.52692017 -94.27103577 365.17942017 -99.26478577 375.12442017 C-126.98478577 375.12442017 -154.70478577 375.12442017 -183.26478577 375.12442017 C-173.11766727 352.57526795 -173.11766727 352.57526795 -167.76478577 342.62442017 C-163.56727332 334.67757348 -159.60182242 326.70612189 -155.9903717 318.47793579 C-152.15979882 309.78352104 -148.08500013 301.20841425 -144.01478577 292.62442017 C-138.91018857 281.85174118 -133.8285017 271.07058204 -128.82728577 260.24942017 C-120.76313268 242.81629725 -112.50883399 225.4729852 -104.26478577 208.12442017 C-103.73691467 207.01324829 -103.20904358 205.90207642 -102.66517639 204.75723267 C-98.66736029 196.34433897 -94.6553331 187.93832778 -90.63221741 179.5375061 C-85.03438554 167.84542099 -79.45661196 156.14379622 -73.88978577 144.43692017 C-73.47587585 143.56650085 -73.06196594 142.69608154 -72.63551331 141.79928589 C-67.55990598 131.12052662 -62.52822896 120.4240474 -57.57728577 109.68692017 C-52.9085282 99.56270334 -48.08704157 89.52048378 -43.20228577 79.49942017 C-37.99276185 68.81159056 -32.88821181 58.08729662 -27.93714905 47.27651978 C-23.76311368 38.17230374 -19.51791197 29.10262383 -15.24693298 20.04351807 C-14.46984416 18.394797 -13.69357281 16.74569038 -12.9181366 15.09619141 C-11.83407383 12.79074911 -10.74714135 10.48668324 -9.65931702 8.18301392 C-9.1664621 7.13346527 -9.1664621 7.13346527 -8.66365051 6.06271362 C-5.79817189 0.01167124 -5.79817189 0.01167124 0 0 Z " fill="#000102" transform="translate(319.26478576660156,312.8755798339844)"/>
<path d="M0 0 C0.33 0.66 0.66 1.32 1 2 C0.14233398 4.3371582 0.14233398 4.3371582 -1.25390625 7.30078125 C-1.77146484 8.40808594 -2.28902344 9.51539063 -2.82226562 10.65625 C-3.40211574 11.8751085 -3.98220065 13.09385532 -4.5625 14.3125 C-5.15744252 15.57656821 -5.75183475 16.84089554 -6.34570312 18.10546875 C-11.07959368 28.16018976 -15.92301149 38.1626832 -20.77685547 48.15991211 C-24.67137809 56.19047553 -28.45821637 64.26624997 -32.1875 72.375 C-37.80294463 84.57728962 -43.68826387 96.63751399 -49.60583496 108.69552612 C-55.57469932 120.8717071 -61.31209029 133.12978376 -66.86358643 145.50128174 C-71.2575388 155.28588278 -75.87502019 164.91753976 -80.7331543 174.48266602 C-84.54420031 182.01071342 -88.09952113 189.63284774 -91.58398438 197.31665039 C-95.56260257 206.08125448 -99.64377699 214.7946996 -103.75 223.5 C-104.43557208 224.95425244 -105.12111887 226.40851681 -105.80664062 227.86279297 C-106.84203328 230.05907208 -107.8775058 232.25531338 -108.91320801 234.45144653 C-112.21918484 241.46218585 -115.51714402 248.47666802 -118.80886841 255.49411011 C-119.43311565 256.82460549 -120.05768512 258.15494974 -120.68258667 259.48513794 C-124.00393497 266.55548676 -127.30053018 273.63560216 -130.53515625 280.74609375 C-131.0946986 281.97266901 -131.65426828 283.1992318 -132.21386719 284.42578125 C-133.25533595 286.71357702 -134.29142035 289.00383398 -135.32128906 291.296875 C-135.77858398 292.30105469 -136.23587891 293.30523438 -136.70703125 294.33984375 C-137.1038208 295.22019287 -137.50061035 296.10054199 -137.90942383 297.00756836 C-139 299 -139 299 -141 300 C-150.65839222 280.28642791 -160.26072249 260.56233015 -169.36425781 240.58496094 C-172.34015532 234.0628596 -175.33631691 227.55005084 -178.32974243 221.03598022 C-179.43338266 218.63396119 -180.53643674 216.23167368 -181.6394043 213.8293457 C-186.54497604 203.14769194 -191.48177639 192.48107798 -196.43994141 181.82373047 C-201.67249392 170.57015862 -206.84311885 159.2884144 -212 148 C-208.25007327 143.99960106 -204.30468981 140.96985554 -199.75 137.9375 C-198.31446427 136.96578842 -196.8795898 135.99309936 -195.4453125 135.01953125 C-194.70958008 134.52146973 -193.97384766 134.0234082 -193.21582031 133.51025391 C-189.65901998 131.08601781 -186.13991236 128.60943934 -182.625 126.125 C-181.92197754 125.6285498 -181.21895508 125.13209961 -180.49462891 124.62060547 C-174.58692673 120.43760363 -168.73207436 116.18322825 -162.87597656 111.9284668 C-157.44158902 107.99784289 -151.92810339 104.19801082 -146.375 100.4375 C-140.37898052 96.37674245 -134.51120164 92.200072 -128.75 87.8125 C-123.26485546 83.63749284 -117.68310363 79.70560723 -111.92041016 75.92456055 C-101.64619327 69.1688563 -91.64619132 62.00146163 -81.61328125 54.89453125 C-56.5052495 37.1090674 -30.87813094 20.10156113 -5.07104492 3.35009766 C-3.37390584 2.24374623 -1.68565557 1.12377038 0 0 Z " fill="#FBFBFB" transform="translate(610,329)"/>
<path d="M0 0 C0.87737823 -0.00426498 1.75475647 -0.00852997 2.65872192 -0.01292419 C4.11417419 -0.01224442 4.11417419 -0.01224442 5.59902954 -0.0115509 C6.61538483 -0.01490952 7.63174011 -0.01826813 8.67889404 -0.02172852 C12.06195274 -0.03127852 15.44496208 -0.03318427 18.82803345 -0.03425598 C21.17679871 -0.03746798 23.52556377 -0.04083201 25.87432861 -0.04434204 C30.81251488 -0.05034498 35.75068363 -0.05218097 40.68887329 -0.05158997 C46.99793286 -0.05148878 53.30687876 -0.06509006 59.61591148 -0.08236217 C64.47514352 -0.09352215 69.33434854 -0.09550787 74.19359207 -0.09498024 C76.51785292 -0.09615629 78.84211456 -0.10055693 81.16636276 -0.10831261 C84.43305955 -0.11818413 87.69951582 -0.11520528 90.96621704 -0.10920715 C92.39130585 -0.11763641 92.39130585 -0.11763641 93.84518433 -0.12623596 C108.54113693 -0.05816661 123.19591417 3.12800017 133.8944397 13.77433777 C140.62357506 21.5754851 140.84751016 30.08279053 140.14834595 40.0131073 C137.91361891 61.67699016 122.42548659 82.02711573 106.24990845 95.5365448 C92.36100524 106.7055378 76.81721637 114.58748108 59.92959595 120.13371277 C58.81197876 120.51269714 57.69436157 120.89168152 56.5428772 121.28215027 C31.06935278 129.0084416 3.43325169 127.52608952 -22.86355591 127.33970642 C-27.75212611 127.30847054 -32.64074624 127.29520132 -37.52938843 127.28019714 C-47.04318696 127.24846144 -56.55677052 127.19757626 -66.07040405 127.13371277 C-59.14295927 111.21815687 -51.46543345 95.70641449 -43.65029907 80.21446228 C-40.81876052 74.6004326 -37.99358833 68.98320116 -35.17196655 63.36418152 C-34.86721027 62.7574762 -34.56245399 62.15077087 -34.24846268 61.52568054 C-28.76080016 50.592592 -23.43748888 39.58604615 -18.20449829 28.52900696 C-15.63326886 23.09837278 -13.03659201 17.67984312 -10.44540405 12.25871277 C-9.93106812 11.17847839 -9.41673218 10.09824402 -8.8868103 8.98527527 C-8.39825562 7.96433777 -7.90970093 6.94340027 -7.40634155 5.89152527 C-6.9788562 4.99578796 -6.55137085 4.10005066 -6.1109314 3.1771698 C-4.41779393 -0.14792654 -3.62945454 0.00793558 0 0 Z " fill="#FBFBFB" transform="translate(610.0704040527344,514.8662872314453)"/>
<path d="M0 0 C1.04171356 -0.00753296 2.08342712 -0.01506592 3.15670776 -0.02282715 C18.17067674 -0.03827855 32.77084285 2.42076379 44.109375 13.0390625 C49.88715467 19.42945498 51.13389907 25.17724981 50.8828125 33.65625 C49.16401206 51.28394751 39.02524921 67.08667076 26.546875 79.1015625 C25.37898438 80.28105469 25.37898438 80.28105469 24.1875 81.484375 C-0.27741446 105.04622215 -35.12211592 112.50543805 -68.00390625 112.296875 C-69.75652402 112.29313563 -71.5091439 112.29029303 -73.26176453 112.28829956 C-77.83029149 112.28073578 -82.39868725 112.26115142 -86.96716309 112.2388916 C-91.64671047 112.21827506 -96.32627947 112.20926435 -101.00585938 112.19921875 C-110.15500493 112.17789721 -119.30405397 112.14385116 -128.453125 112.1015625 C-123.40169444 100.68324528 -118.22333331 89.3654305 -112.56610107 78.23403931 C-110.82534067 74.80709537 -109.10052001 71.3721364 -107.375 67.9375 C-107.03435516 67.25994156 -106.69371033 66.58238312 -106.34274292 65.8842926 C-102.53990614 58.30604862 -98.89123028 50.65667511 -95.2578125 42.99609375 C-93.1170829 38.4833103 -90.95077122 33.98347203 -88.7734375 29.48828125 C-88.4566806 28.83402664 -88.13992371 28.17977203 -87.81356812 27.50569153 C-86.55412706 24.90491751 -85.29444226 22.30426718 -84.03192139 19.70498657 C-83.16053697 17.91075942 -82.29117437 16.11555079 -81.421875 14.3203125 C-80.92107422 13.28841797 -80.42027344 12.25652344 -79.90429688 11.19335938 C-78.33922202 7.8588863 -76.88652887 4.49444862 -75.453125 1.1015625 C-67.94879709 0.96848694 -60.44442778 0.83798159 -52.94000435 0.71041107 C-49.45216874 0.65104665 -45.96435028 0.5909246 -42.4765625 0.52880859 C-28.31853447 0.27731772 -14.16041565 0.05249176 0 0 Z " fill="#FBFBFB" transform="translate(754.453125,356.8984375)"/>
</svg>
